<?xml version="1.0" encoding="utf-8"?>
<!-- Generator: Adobe Illustrator 24.0.0, SVG Export Plug-In . SVG Version: 6.00 Build 0)  -->
<svg version="1.1" id="Layer_1" xmlns="http://www.w3.org/2000/svg" xmlns:xlink="http://www.w3.org/1999/xlink" x="0px" y="0px"
	 viewBox="0 0 451.3 451.3" style="enable-background:new 0 0 451.3 451.3;" xml:space="preserve">
<style type="text/css">
	.st0{fill:#742D6C;}
	.st1{opacity:0.1;enable-background:new;}
	.st2{fill:#EBF0F3;}
	.st3{fill:#64798A;}
	.st4{fill:#3A556A;}
</style>
<circle class="st0" cx="225.6" cy="225.6" r="225.6"/>
<path class="st1" d="M450.6,243.1L307,99.6l-0.1-0.1c-1.5-1.9-3.9-3.1-6.6-3.1H150.9c-4.8,0-8.7,3.9-8.7,8.7v241.1
	c0,3.3,1.8,6.1,4.4,7.5l0,0l96.8,96.8C354,441.9,442.1,353.7,450.6,243.1z"/>
<path class="st2" d="M300.3,96.4H151c-4.8,0-8.7,3.9-8.7,8.7v241.1c0,4.8,3.9,8.7,8.7,8.7h149.4c4.8,0,8.7-3.9,8.7-8.7V105.1
	C309,100.3,305.1,96.4,300.3,96.4z"/>
<rect x="156.3" y="117" class="st3" width="138.6" height="194"/>
<rect x="156.3" y="304.1" class="st4" width="138.6" height="6.9"/>
<g>
	<path class="st3" d="M225.6,345c-6.9,0-12.5-5.6-12.5-12.5c0-6.9,5.6-12.5,12.5-12.5c6.9,0,12.5,5.6,12.5,12.5
		C238.1,339.4,232.5,345,225.6,345z M225.6,324.7c-4.3,0-7.8,3.5-7.8,7.8c0,4.3,3.5,7.8,7.8,7.8s7.8-3.5,7.8-7.8
		C233.4,328.2,229.9,324.7,225.6,324.7z"/>
	<path class="st3" d="M236.4,108.7h-21.4c-1.3,0-2.4-1.1-2.4-2.4c0-1.3,1.1-2.4,2.4-2.4h21.4c1.3,0,2.4,1.1,2.4,2.4
		C238.7,107.7,237.7,108.7,236.4,108.7z"/>
	<circle class="st3" cx="201" cy="106.4" r="2.4"/>
</g>
</svg>
