<?xml version="1.0" encoding="utf-8"?>
<!-- Generator: Adobe Illustrator 24.0.0, SVG Export Plug-In . SVG Version: 6.00 Build 0)  -->
<svg version="1.1" id="Capa_1" xmlns="http://www.w3.org/2000/svg" xmlns:xlink="http://www.w3.org/1999/xlink" x="0px" y="0px"
	 viewBox="0 0 409.6 409.6" style="enable-background:new 0 0 409.6 409.6;" xml:space="preserve">
<style type="text/css">
	.st0{fill:#742D6C;}
	.st1{opacity:0.1;enable-background:new;}
	.st2{fill:#D15241;}
	.st3{fill:#E56353;}
	.st4{fill:#EBF0F3;}
	.st5{fill:#27A2DB;}
</style>
<circle class="st0" cx="204.8" cy="204.8" r="204.8"/>
<path class="st1" d="M409.6,204.8c0-4.3,0-8.5-0.4-12.4l-88.7-89.2c-1.3-1.3-3-2.1-4.7-2.1H93.9c-3.4,0-6.4,3-6.4,6.4v161.7
	c0,2.1,1.3,4.3,3,5.5L224,408.3C328.1,398.9,409.6,311.5,409.6,204.8z"/>
<rect x="171.9" y="273.9" class="st2" width="65.7" height="20.9"/>
<path class="st3" d="M315.7,101.5H93.9c-3.4,0-6.4,3-6.4,6.4v136.1v25.6c0,3.4,3,6.4,6.4,6.4h221.9c3.4,0,6.4-3,6.4-6.4v-25.6V107.9
	C322.1,104.1,319.1,101.5,315.7,101.5z"/>
<circle class="st4" cx="204.8" cy="260.3" r="9"/>
<path class="st3" d="M245.8,293.5h-81.9c-8.1,0-14.9,6.8-14.9,14.9l0,0h111.4l0,0C260.3,299.9,253.9,293.5,245.8,293.5z"/>
<rect x="100.3" y="114.3" class="st5" width="209.1" height="130.1"/>
</svg>
